<?xml version="1.0" encoding="UTF-8"?>
<!DOCTYPE svg PUBLIC "-//W3C//DTD SVG 1.1//EN" "http://www.w3.org/Graphics/SVG/1.1/DTD/svg11.dtd">
<!-- Creator: CorelDRAW -->
<svg xmlns="http://www.w3.org/2000/svg" xml:space="preserve" width="1.66666in" height="0.666661in" version="1.1" style="shape-rendering:geometricPrecision; text-rendering:geometricPrecision; image-rendering:optimizeQuality; fill-rule:evenodd; clip-rule:evenodd"
viewBox="0 0 1666.66 666.66"
 xmlns:xlink="http://www.w3.org/1999/xlink"
 xmlns:xodm="http://www.corel.com/coreldraw/odm/2003">
 <defs>
  <style type="text/css">
   <![CDATA[
    .fil0 {fill:#CAA465}
   ]]>
  </style>
 </defs>
 <g id="Layer_x0020_1">
  <metadata id="CorelCorpID_0Corel-Layer"/>
  <g id="_2003175797488">
   <g>
    <g>
     <path class="fil0" d="M403.01 212.87l30.48 -0.14c94.2,-0.52 85.31,73.32 52.56,94.3 -22.1,14.16 -56.11,11.07 -83.1,11.18l-0.07 -58.74 0.13 -46.61zm79.46 -8.69c-22.52,-5.77 -86.21,-6.12 -112.12,-4.07 -0.54,4.7 0.88,24.67 0.87,31.81 -0.03,22.62 1.45,84.04 -1.35,98.93 22.78,2.8 94.06,1.37 114.58,-4.11 30.13,-8.07 56.32,-26.72 55.94,-62.27 -0.38,-35 -28.21,-52.68 -57.93,-60.3z"/>
     <path class="fil0" d="M1256.56 322.98c35.9,9.85 78.98,17.1 116.18,5.5 16.34,-5.09 32.07,-15.74 34.37,-33.34 5.41,-41.4 -59.99,-42.09 -87.63,-45.09 -14.48,-1.57 -49.01,-7.46 -33.22,-28.13 13.29,-17.39 62.04,-13.92 84.26,-7.95 6.05,1.63 19.78,8.15 24.02,7.44l0.04 -15.24c-29.78,-11.52 -85.99,-14.42 -114.44,-0.4 -12.93,6.37 -29.03,20.89 -19.55,43.07 11.64,27.26 69.24,21.1 101.74,29.77 20.97,5.59 24.93,25.78 6.65,36.03 -14.1,7.91 -42.3,7.4 -60.14,5.81 -26.05,-2.33 -37.09,-12.32 -49.41,-15.76l-2.85 18.28z"/>
     <path class="fil0" d="M819.31 279.83c4.29,-9.66 12.39,-21.13 17.96,-31.07 5.3,-9.45 13.61,-21.76 17.77,-30.8 1.44,1.24 0.78,0.52 2.16,2.13l3.48 5.41c6.91,11.28 29.54,47.59 31.75,54.5l-73.11 -0.18zm-28.93 50.99c2.15,-6.06 18.15,-33.77 21.35,-37.05l89.76 -0.07 21.61 37.37 34.03 0.06 -39.89 -65.79c-7.26,-11.89 -34.01,-58.53 -39.7,-65.39 -29.63,-0.1 -28.98,-3.52 -36.46,8.83 -19.16,31.63 -57.28,95.03 -71.59,122.16l20.88 -0.12z"/>
     <path class="fil0" d="M615.46 199.91l-30.83 0.35c-0.22,5.86 1.12,16.39 1.15,24.15 0.07,21.76 -2.32,59.1 3.71,75.66 13.62,37.38 84.84,40.86 116.65,26.74 10.79,-4.79 23.12,-14.87 27.65,-24.98 7.94,-17.69 4.01,-77.74 4.98,-101.94l-19.78 0.4c0.95,19.07 2.56,69.5 -0.28,86.49 -4.26,25.47 -23.83,32.91 -52.31,32.83 -75.68,-0.2 -42.3,-68.82 -50.93,-119.7z"/>
     <path class="fil0" d="M1529.23 331.08c-2.5,-19.17 -1.39,-39.45 -1.41,-59.08 -0.02,-19.22 -0.59,-39.58 0.24,-58.67 12.15,-0.85 55.72,1.32 62.91,-1.06l-0.17 -12.41 -156.77 0.11 0.16 13.03 62.01 0.51c0.88,17.67 1.07,102.68 -0.91,117.63l33.94 -0.06z"/>
     <path class="fil0" d="M1030.17 317.61c-3.5,-13.35 2.03,-101.95 -1.36,-117.78l-31.07 0.35c-0.77,4.7 1.63,108.26 -0.65,130.77 14.01,1.14 129.48,1.61 137.05,-0.55l0.07 -11.77c-14.52,-4.12 -82.25,0.42 -104.04,-1.02z"/>
     <path class="fil0" d="M1208.2 331.28c-3.24,-31.01 0.94,-120.78 -1.24,-131.37l-31.71 0.12c-0.63,5.06 0.59,24.37 0.57,31.9 -0.03,11.27 0.08,22.54 0.02,33.81 -0.11,20.61 1.63,45.93 -1.41,65.46l33.77 0.07z"/>
    </g>
    <g>
     <path class="fil0" d="M555.46 422.36l23.28 20.58c3.56,3.81 7.81,6.78 11.89,10.66 5.21,4.95 4.87,6.94 15.35,6.73l-0.16 -48.09 -7.8 -0.17 -0.06 37.86c-4.24,-2.78 -8.11,-7.1 -12.05,-10.4 -4.55,-3.81 -7.16,-7.12 -11.54,-10.98 -16.01,-14.12 -14.41,-16.84 -27.53,-16.36l0.11 48.05 7.91 -0.35 0.6 -37.53z"/>
     <path class="fil0" d="M814.79 418.08c25.32,-0.04 41.88,-3.95 37.91,13.54 -8.98,5.32 -25.01,4.09 -37.78,3.4l-0.13 -16.93zm32.57 22.96c6.35,-3.22 12.65,-3.6 13.97,-11.37 1.35,-7.96 -2.91,-12.97 -8.57,-15.35 -7.84,-3.3 -36.99,-3.07 -46.42,-1.85l0.42 47.97 7.7 -0.07 0.61 -19.02c10.05,-0.91 21.4,-2.13 25.93,3.54 13.11,16.41 7.75,15.55 20.47,15.54 -3.23,-7.09 -11.86,-14.48 -14.12,-19.37z"/>
     <path class="fil0" d="M731.1 418.42c7.77,-0.83 15.78,-0.32 23.6,-0.31 19.01,0 16.5,1.99 16.59,-6.17l-48.67 0.7 0.33 47.66c7.1,0.74 44.43,1.33 49.14,-0.45l0.15 -3.76c-4.45,-3.19 -28.63,-0.36 -40.99,-1.77l0.2 -15.2c10.39,-1.06 19.64,0.31 27.17,-0.06 7.32,-0.36 4.69,0.78 6.05,-3.01 -1.38,-4.32 0.25,-3.22 -7.32,-3.3l-25.96 0.01 -0.28 -14.33z"/>
     <path class="fil0" d="M472.85 418.13c8.5,-0.27 34.55,1.66 40.17,-0.87l0.06 -3.76c-1.55,-1.04 -0.18,-0.5 -2.8,-1.12l-45.91 0.03 0.41 48.16 48.67 -0.42 0.15 -5.39 -40.67 -0.33 0.41 -15.42c5.7,-0.35 11.44,-0.17 17.15,-0.1 17.88,0.21 13.73,1.2 15.68,-2.87 -1.77,-4.03 2.15,-2.83 -6.76,-3.27l-26.35 0.16 -0.19 -14.8z"/>
     <path class="fil0" d="M426.78 449c-14.74,10.48 -47.75,9.68 -47.71,-12.96 0.03,-18.58 21.78,-20.59 35.72,-18.05 5.57,1.01 8.58,3.46 12.89,4.6l2.37 -5.33c-18.38,-12.91 -60.94,-6.91 -60.17,20.05 0.75,26.28 45.21,30.87 61.39,17.35l-4.49 -5.67z"/>
     <path class="fil0" d="M692.1 413.5c-1.3,-0.93 -0.37,-0.59 -2.6,-1.33l-53.37 0.33 -0.01 5.28 23.9 0.59 0.76 41.86 7.7 0.07 0.22 -41.79 23.3 -1.24 0.1 -3.76z"/>
    </g>
   </g>
   <path class="fil0" d="M163.47 214.43c7.26,0.01 5.71,0.78 5.29,-14.28l-92.85 0.03 -0.15 6.29c-0.04,61.32 0.5,122.67 -0.06,183.99 5.5,-2.56 27.26,-16.94 32.9,-20.5l16.35 -10.19c24.28,-15.7 49.06,-30.85 73.56,-46.15 2.29,-1.43 5.86,-4.03 8.06,-4.98 0.06,-9.56 -0.52,-89.48 0.46,-92.31 12.79,0.07 31.56,8.98 40.4,14.34 6.35,3.85 10.68,7.54 15.87,11.67 2.34,1.87 4.67,4.56 6.8,6.72 20.16,20.54 35.27,50.22 36.26,86.61 1.37,50.8 -31.28,98.89 -77.57,113.39 -5.07,1.59 -16.57,4.84 -22.07,4.58l-0.07 -40.85c0.04,-9.53 0.63,-70.99 -0.15,-79.49 -5.45,2.5 -11.11,6.92 -16.32,10.06l-49.03 30.6c-10.74,7.21 -21.8,13.5 -32.65,20.43 -4.67,2.98 -28.15,18.32 -32.73,20.31l-0.01 54.28c6.06,0.06 86.78,0.68 93.1,-0.16 0.09,-5.06 0.35,-10.23 -0.15,-15.26l-76.74 -0.24c-0.03,-2.45 -0.54,-26.44 0.07,-28.02 0.31,-0.82 44.57,-28.19 49.06,-30.88l37.03 -23.06c2.24,-1.48 10.13,-6.62 12.32,-7.26 0.42,35.36 -0.5,70.75 0.25,106.11l6.31 0.07c53.41,0.4 96.84,-35.26 115.66,-77.57 15.59,-35.07 14.96,-77.56 -0.74,-112.38 -6.16,-13.66 -15.94,-30.03 -26.83,-40.26 -2.78,-2.61 -5.39,-5.98 -8.58,-8.44 -11.24,-8.67 -15.13,-12.91 -30.51,-20.09 -17.15,-8 -33.83,-12.24 -55.47,-11.5l-0.09 98.06c-3.77,1.93 -8.38,5.31 -12.29,7.69 -24.66,15.02 -49.13,31.37 -73.74,46.46 -2.62,1.61 -10.26,7.1 -12.41,7.43l-0.03 -60.57c0.04,-26.91 -0.63,-57.69 0.11,-84.68l71.39 -0.01z"/>
  </g>
 </g>
</svg>
